<svg xmlns="http://www.w3.org/2000/svg" xmlns:xlink="http://www.w3.org/1999/xlink" width="456" height="482" shape-rendering="geometricPrecision"
    text-rendering="geometricPrecision" image-rendering="optimizeQuality" fill-rule="evenodd" clip-rule="evenodd"
    viewBox="0 0 456 482">
    <g> 
        <!--
        Рисуем последовательно капли на стене группами одного цвета с интервалом 0.3 секунды между группами, 
        используя анимацию свойства "opasity" продолжительностью 0.1 секунды каждая
        -->
        <path id="drop_1" fill="#D7DBDA" opacity="0" d="M371.505 212.204c9.217,0.431 13.382,-8.189 11.528,-15.485 -1.59,-6.254 -7.604,-11.535 -18.652,-9.309 -9.822,1.98 -10.024,5.853 -12.741,16.761 -1.517,6.091 2.896,10.284 8.661,12.543 8.516,3.335 19.982,2.447 19.651,-2.787 -0.067,-1.051 -9.503,0.944 -8.447,-1.723z"/>
        <path id="drop_2" fill="#CCCCCC" opacity="0" d="M284.35 345.974c9.893,-0.463 13.967,9.504 11.021,17.067 -2.15,5.523 -8.043,9.764 -18.145,7.727 -9.822,-1.98 -10.024,-5.853 -12.741,-16.76 -1.758,-7.059 4.448,-11.57 11.495,-13.473 8.013,-2.164 17.113,-0.954 16.817,3.717 -0.067,1.05 -9.502,-0.945 -8.447,1.722z"/>
        <path id="drop_3" fill="#D7DBDA" opacity="0" d="M143.472 421.726c-11.219,-0.525 -14.954,12.364 -9.454,19.948 2.89,3.987 8.332,6.508 16.578,4.845 9.823,-1.979 10.024,-5.853 12.741,-16.76 1.546,-6.204 -3.062,-10.44 -8.985,-12.667 -8.479,-3.188 -19.654,-2.258 -19.326,2.911 0.066,1.051 9.502,-0.945 8.446,1.723z"/>
        <path id="drop_4" fill="#999999" opacity="0" d="M107.032 212.204c9.367,0.438 13.517,-8.473 11.431,-15.841 -1.724,-6.097 -7.717,-11.137 -18.555,-8.953 -9.822,1.98 -10.024,5.853 -12.741,16.761 -1.804,7.24 4.773,11.8 12.04,13.614 7.875,1.966 16.56,0.707 16.271,-3.858 -0.066,-1.051 -9.502,0.944 -8.446,-1.723z"/>
        <path id="drop_5" fill="#999999" opacity="0" d="M231.67 288.206c-9.89,0.462 -13.964,-9.497 -11.024,-17.058 2.147,-5.527 8.041,-9.773 18.148,-7.736 9.822,1.98 9.562,5.978 12.741,16.76 2.123,7.2 -4.689,11.706 -12.161,13.432 -7.735,1.786 -16.178,0.593 -16.151,-3.676 0.007,-1.053 9.503,0.945 8.447,-1.722z"/>
        <path id="drop_6" fill="#999999" opacity="0" d="M412.182 259.952c9.218,-0.431 13.383,8.192 11.526,15.488 -1.59,6.254 -7.604,11.532 -18.65,9.306 -9.822,-1.98 -10.024,-5.853 -12.741,-16.76 -1.81,-7.265 4.818,-11.831 12.114,-13.633 7.856,-1.939 16.486,-0.674 16.197,3.877 -0.066,1.05 -9.502,-0.945 -8.446,1.722z"/>
        <path id="drop_7" fill="#FFCC00" opacity="0" d="M195.376 193.37c9.604,-0.45 13.724,8.93 11.262,16.398 -1.926,5.841 -7.88,10.513 -18.386,8.395 -9.822,-1.979 -10.024,-5.853 -12.741,-16.76 -1.387,-5.569 2.184,-9.552 7.212,-11.919 8.595,-4.047 21.45,-3.375 21.1,2.163 -0.067,1.051 -9.502,-0.945 -8.447,1.723z"/>
        <path id="drop_8" fill="#FFCC00" opacity="0" d="M328.222 288.206c9.722,0.454 13.823,-9.162 11.167,-16.672 -2.02,-5.713 -7.95,-10.206 -18.292,-8.122 -9.822,1.98 -10.024,5.853 -12.74,16.76 -1.643,6.597 3.669,10.968 10.122,13.065 8.306,2.7 18.502,1.632 18.189,-3.309 -0.066,-1.05 -9.502,0.945 -8.446,-1.722z"/>
        <path id="drop_9" fill="#FFCC00" opacity="0" d="M196.05 365.559c8.908,0.417 13.097,-7.622 11.693,-14.748 -1.294,-6.567 -7.338,-12.36 -18.817,-10.046 -9.823,1.98 -10.024,5.853 -12.741,16.761 -1.582,6.349 3.281,10.637 9.403,12.82 8.423,3.003 19.23,2.02 18.908,-3.065 -0.066,-1.05 -9.502,0.945 -8.446,-1.722z"/>
        <path id="drop_10" fill="#336666" opacity="0" d="M35.611 53.606c-8.523,0.399 -12.727,-6.944 -11.844,-13.821 0.89,-6.934 6.951,-13.395 18.968,-10.973 9.822,1.98 10.024,5.853 12.741,16.76 1.768,7.101 -4.521,11.623 -11.619,13.506 -7.982,2.118 -16.987,0.898 -16.692,-3.75 0.066,-1.05 9.502,0.945 8.446,-1.722z"/>
        <path id="drop_11" fill="#336666" opacity="0" d="M143.605 117.233c-11.917,-0.558 -15.39,14.02 -8.32,21.298 3.084,3.175 8.174,4.961 15.444,3.496 9.822,-1.98 10.024,-5.853 12.741,-16.761 1.511,-6.066 -2.861,-10.251 -8.592,-12.515 -8.523,-3.368 -20.052,-2.49 -19.719,2.759 0.066,1.051 9.502,-0.944 8.446,1.723z"/>
        <path id="drop_12" fill="#336666" opacity="0" d="M324.118 107.816c10.282,-0.481 14.277,10.303 10.641,17.946 -2.417,5.081 -8.207,8.774 -17.765,6.847 -9.822,-1.979 -10.024,-5.853 -12.741,-16.76 -1.541,-6.185 3.034,-10.414 8.93,-12.646 8.486,-3.212 19.709,-2.289 19.381,2.89 -0.066,1.051 -9.502,-0.944 -8.446,1.723z"/>
        <path id="drop_13" fill="#333333" opacity="0" d="M236.053 126.651c9.467,0.443 13.605,-8.665 11.363,-16.077 -1.811,-5.99 -7.789,-10.874 -18.487,-8.717 -9.822,1.98 -10.024,5.853 -12.74,16.76 -1.477,5.928 2.665,10.06 8.203,12.358 8.556,3.551 20.445,2.727 20.108,-2.602 -0.067,-1.05 -9.502,0.945 -8.447,-1.722z"/>
        <path id="drop_14" fill="#333333" opacity="0" d="M375.45 50.257c-10.18,0.476 -14.197,-10.09 -10.747,-17.718 2.351,-5.198 8.17,-9.031 17.871,-7.076 9.822,1.98 10.024,5.853 12.741,16.76 1.522,6.111 -2.924,10.312 -8.717,12.565 -8.509,3.309 -19.925,2.414 -19.594,-2.809 0.066,-1.05 9.502,0.945 8.446,-1.722z"/>
        <path id="drop_15" fill="#333333" opacity="0" d="M275.234 212.204c-11.262,0.527 -14.982,-12.461 -9.393,-20.034 2.906,-3.936 8.329,-6.41 16.517,-4.76 9.822,1.98 10.024,5.853 12.74,16.761 1.815,7.285 -4.855,11.857 -12.175,13.648 -7.839,1.917 -16.424,0.647 -16.136,-3.892 0.067,-1.051 9.502,0.944 8.447,-1.723z"/>

        <animate xlink:href="#drop_1" attributeName="opacity" dur="0.1s" repeatCount="1" from="0" to="1" id="drop_1_anim" fill="freeze" begin="2s"/>
        <animate xlink:href="#drop_2" attributeName="opacity" dur="0.1s" repeatCount="1" from="0" to="1" id="drop_2_anim" fill="freeze" begin="drop_1_anim.end + 0s"/>
        <animate xlink:href="#drop_3" attributeName="opacity" dur="0.1s" repeatCount="1" from="0" to="1" id="drop_3_anim" fill="freeze" begin="drop_2_anim.end + 0s"/>
        <animate xlink:href="#drop_4" attributeName="opacity" dur="0.1s" repeatCount="1" from="0" to="1" id="drop_4_anim" fill="freeze" begin="drop_3_anim.end + 0.3s"/>
        <animate xlink:href="#drop_5" attributeName="opacity" dur="0.1s" repeatCount="1" from="0" to="1" id="drop_5_anim" fill="freeze" begin="drop_4_anim.end + 0s"/>
        <animate xlink:href="#drop_6" attributeName="opacity" dur="0.1s" repeatCount="1" from="0" to="1" id="drop_6_anim" fill="freeze" begin="drop_5_anim.end + 0s"/>
        <animate xlink:href="#drop_7" attributeName="opacity" dur="0.1s" repeatCount="1" from="0" to="1" id="drop_7_anim" fill="freeze" begin="drop_6_anim.end + 0.3s"/>
        <animate xlink:href="#drop_8" attributeName="opacity" dur="0.1s" repeatCount="1" from="0" to="1" id="drop_8_anim" fill="freeze" begin="drop_7_anim.end + 0s"/>
        <animate xlink:href="#drop_9" attributeName="opacity" dur="0.1s" repeatCount="1" from="0" to="1" id="drop_9_anim" fill="freeze" begin="drop_8_anim.end + 0s"/>
        <animate xlink:href="#drop_10" attributeName="opacity" dur="0.1s" repeatCount="1" from="0" to="1" id="drop_10_anim" fill="freeze" begin="drop_9_anim.end + 0.3s"/>
        <animate xlink:href="#drop_11" attributeName="opacity" dur="0.1s" repeatCount="1" from="0" to="1" id="drop_11_anim" fill="freeze" begin="drop_10_anim.end + 0s"/>
        <animate xlink:href="#drop_12" attributeName="opacity" dur="0.1s" repeatCount="1" from="0" to="1" id="drop_12_anim" fill="freeze" begin="drop_11_anim.end + 0s"/>
        <animate xlink:href="#drop_13" attributeName="opacity" dur="0.1s" repeatCount="1" from="0" to="1" id="drop_13_anim" fill="freeze" begin="drop_12_anim.end + 0.3s"/>
        <animate xlink:href="#drop_14" attributeName="opacity" dur="0.1s" repeatCount="1" from="0" to="1" id="drop_14_anim" fill="freeze" begin="drop_13_anim.end + 0s"/>
        <animate xlink:href="#drop_15" attributeName="opacity" dur="0.1s" repeatCount="1" from="0" to="1" id="drop_15_anim" fill="freeze" begin="drop_14_anim.end + 0s"/>

        <!--
        После отрисовки всех капель преобразуем последовательно капли в гексалы тоже группами одного цвета с интервалом 0.3 секунды 
        между группами, используя анимацию изменения формы (свойство "d") продолжительностью 0.5 секунды каждая
        -->
        <path fill="#D7DBDA">
            <animate 
                id="hexal_1_anim"
                attributeName="d" 
                dur="0.5s" 
                repeatCount="1" 
                fill="freeze"  
                begin="drop_15_anim.end + 0.3s"          
                values="
                    M371.505 212.204c9.217,0.431 13.382,-8.189 11.528,-15.485 -1.59,-6.254 -7.604,-11.535 -18.652,-9.309 -9.822,1.98 -10.024,5.853 -12.741,16.761 -1.517,6.091 2.896,10.284 8.661,12.543 8.516,3.335 19.982,2.447 19.651,-2.787 -0.067,-1.051 -9.503,0.944 -8.447,-1.723z;
                    M367.402 153.929c14.103,8.143 28.207,16.286 42.312,24.429 0,16.286 0,32.571 0,48.857 -14.105,8.143 -28.209,16.286 -42.312,24.429 -14.104,-8.143 -28.208,-16.286 -42.312,-24.429 0,-16.286 0,-32.571 0,-48.857 14.104,-8.143 28.208,-16.286 42.312,-24.429z;
                "
            />
        </path>
        <path fill="#CCCCCC">
            <animate 
                id="hexal_2_anim"
                attributeName="d" 
                dur="0.5s"
                repeatCount="1" 
                fill="freeze" 
                begin="hexal_1_anim.end + 0s"        
                values="
                    M284.35 345.974c9.893,-0.463 13.967,9.504 11.021,17.067 -2.15,5.523 -8.043,9.764 -18.145,7.727 -9.822,-1.98 -10.024,-5.853 -12.741,-16.76 -1.758,-7.059 4.448,-11.57 11.495,-13.473 8.013,-2.164 17.113,-0.954 16.817,3.717 -0.067,1.05 -9.502,-0.945 -8.447,1.722z;
                    M280.247 306.535c14.104,8.142 28.207,16.286 42.311,24.428 0,16.286 0,32.572 0,48.858 -14.104,8.142 -28.207,16.286 -42.311,24.428 -14.104,-8.142 -28.208,-16.286 -42.312,-24.428 0,-16.286 0,-32.572 0,-48.858 14.104,-8.142 28.208,-16.286 42.312,-24.428z;
                "
            />
        </path>
        <path fill="#D7DBDA">
            <animate 
                id="hexal_3_anim"
                attributeName="d" 
                dur="0.5s"
                repeatCount="1" 
                fill="freeze"  
                begin="hexal_2_anim.end + 0s"       
                values="
                    M143.472 421.726c-11.219,-0.525 -14.954,12.364 -9.454,19.948 2.89,3.987 8.332,6.508 16.578,4.845 9.823,-1.979 10.024,-5.853 12.741,-16.76 1.546,-6.204 -3.062,-10.44 -8.985,-12.667 -8.479,-3.188 -19.654,-2.258 -19.326,2.911 0.066,1.051 9.502,-0.945 8.446,1.723z;
                    M147.576 382.286c14.104,8.142 28.207,16.286 42.312,24.429 0,16.286 0,32.571 0,48.857 -14.105,8.143 -28.209,16.285 -42.312,24.429 -14.104,-8.144 -28.208,-16.286 -42.312,-24.429 0,-16.286 0,-32.571 0,-48.857 14.104,-8.143 28.208,-16.287 42.312,-24.429z;
                "
            />
        </path>
        <path fill="#999999">
            <animate 
                id="hexal_4_anim"
                attributeName="d" 
                dur="0.5s"
                repeatCount="1"  
                fill="freeze"  
                begin="hexal_3_anim.end + 0.3s"      
                values="
                    M107.032 212.204c9.367,0.438 13.517,-8.473 11.431,-15.841 -1.724,-6.097 -7.717,-11.137 -18.555,-8.953 -9.822,1.98 -10.024,5.853 -12.741,16.761 -1.804,7.24 4.773,11.8 12.04,13.614 7.875,1.966 16.56,0.707 16.271,-3.858 -0.066,-1.051 -9.502,0.944 -8.446,-1.723z;
                    M102.928 153.929c14.104,8.143 28.208,16.286 42.312,24.429 0,16.286 0,32.571 0,48.857 -14.104,8.143 -28.208,16.286 -42.312,24.429 -14.103,-8.143 -28.207,-16.286 -42.311,-24.429 0,-16.286 0,-32.571 0,-48.857 14.104,-8.143 28.208,-16.286 42.311,-24.429z;
                "
            />
        </path>
        <path fill="#999999">
            <animate 
                id="hexal_5_anim"
                attributeName="d" 
                dur="0.5s"
                repeatCount="1"  
                fill="freeze"    
                begin="hexal_4_anim.end + 0s"    
                values="
                    M231.67 288.206c-9.89,0.462 -13.964,-9.497 -11.024,-17.058 2.147,-5.527 8.041,-9.773 18.148,-7.736 9.822,1.98 9.562,5.978 12.741,16.76 2.123,7.2 -4.689,11.706 -12.161,13.432 -7.735,1.786 -16.178,0.593 -16.151,-3.676 0.007,-1.053 9.503,0.945 8.447,-1.722z;
                    M235.773 229.93c14.104,8.144 28.208,16.286 42.312,24.429 0,16.286 0,32.571 0,48.858 -14.104,8.142 -28.208,16.286 -42.312,24.428 -14.104,-8.142 -28.207,-16.286 -42.311,-24.428 0,-16.287 0,-32.572 0,-48.858 14.104,-8.143 28.208,-16.285 42.311,-24.429z;

                "
            />
        </path>
        <path fill="#999999">
            <animate 
                id="hexal_6_anim"
                attributeName="d" 
                dur="0.5s"
                repeatCount="1" 
                fill="freeze"    
                begin="hexal_5_anim.end + 0s"     
                values="
                    M412.182 259.952c9.218,-0.431 13.383,8.192 11.526,15.488 -1.59,6.254 -7.604,11.532 -18.65,9.306 -9.822,-1.98 -10.024,-5.853 -12.741,-16.76 -1.81,-7.265 4.818,-11.831 12.114,-13.633 7.856,-1.939 16.486,-0.674 16.197,3.877 -0.066,1.05 -9.502,-0.945 -8.446,1.722z;
                    M412.182 229.93c14.104,8.144 28.208,16.286 42.312,24.429 0,16.286 0,32.571 0,48.858 -14.104,8.142 -28.208,16.286 -42.312,24.428 -14.104,-8.142 -28.207,-16.286 -42.312,-24.428 0,-16.287 0,-32.572 0,-48.858 14.105,-8.143 28.208,-16.285 42.312,-24.429z;
                "
            />
        </path>
        <path fill="#FFCC00">
            <animate 
                id="hexal_7_anim"
                attributeName="d" 
                dur="0.5s"
                repeatCount="1" 
                fill="freeze"    
                begin="hexal_6_anim.end + 0.3s"     
                values="
                    M195.376 193.37c9.604,-0.45 13.724,8.93 11.262,16.398 -1.926,5.841 -7.88,10.513 -18.386,8.395 -9.822,-1.979 -10.024,-5.853 -12.741,-16.76 -1.387,-5.569 2.184,-9.552 7.212,-11.919 8.595,-4.047 21.45,-3.375 21.1,2.163 -0.067,1.051 -9.502,-0.945 -8.447,1.723z;
                    M191.273 153.929c14.103,8.143 28.208,16.286 42.312,24.429 0,16.286 0,32.571 0,48.857 -14.104,8.143 -28.209,16.286 -42.312,24.429 -14.104,-8.143 -28.208,-16.286 -42.312,-24.429 0,-16.286 0,-32.571 0,-48.857 14.104,-8.143 28.208,-16.286 42.312,-24.429z;
                "
            />
        </path>
        <path fill="#FFCC00">
            <animate 
                id="hexal_8_anim"
                attributeName="d" 
                dur="0.5s"
                repeatCount="1" 
                fill="freeze"   
                begin="hexal_7_anim.end + 0s"      
                values="
                    M328.222 288.206c9.722,0.454 13.823,-9.162 11.167,-16.672 -2.02,-5.713 -7.95,-10.206 -18.292,-8.122 -9.822,1.98 -10.024,5.853 -12.74,16.76 -1.643,6.597 3.669,10.968 10.122,13.065 8.306,2.7 18.502,1.632 18.189,-3.309 -0.066,-1.05 -9.502,0.945 -8.446,-1.722z;
                    M324.118 229.93c14.104,8.144 28.208,16.286 42.312,24.429 0,16.286 0,32.571 0,48.858 -14.104,8.142 -28.208,16.286 -42.312,24.428 -14.104,-8.142 -28.208,-16.286 -42.312,-24.428 0,-16.287 0,-32.572 0,-48.858 14.104,-8.143 28.208,-16.285 42.312,-24.429z;
                "
            />
        </path>
        <path fill="#FFCC00">
            <animate 
                id="hexal_9_anim"
                attributeName="d" 
                dur="0.5s"
                repeatCount="1" 
                fill="freeze"   
                begin="hexal_8_anim.end + 0s"      
                values="
                    M196.05 365.559c8.908,0.417 13.097,-7.622 11.693,-14.748 -1.294,-6.567 -7.338,-12.36 -18.817,-10.046 -9.823,1.98 -10.024,5.853 -12.741,16.761 -1.582,6.349 3.281,10.637 9.403,12.82 8.423,3.003 19.23,2.02 18.908,-3.065 -0.066,-1.05 -9.502,0.945 -8.446,-1.722z;
                    M191.902 306.535c14.104,8.142 28.208,16.286 42.312,24.428 0,16.286 0,32.572 0,48.858 -14.104,8.142 -28.208,16.286 -42.312,24.428 -14.104,-8.142 -28.208,-16.286 -42.312,-24.428 0,-16.286 0,-32.572 0,-48.858 14.104,-8.142 28.208,-16.286 42.312,-24.428z;
                "
            />
        </path>
        <path fill="#336666">
            <animate 
                id="hexal_10_anim"
                attributeName="d" 
                dur="0.5s"
                repeatCount="1" 
                fill="freeze"  
                begin="hexal_9_anim.end + 0.3s"       
                values="
                    M35.611 53.606c-8.523,0.399 -12.727,-6.944 -11.844,-13.821 0.89,-6.934 6.951,-13.395 18.968,-10.973 9.822,1.98 10.024,5.853 12.741,16.76 1.768,7.101 -4.521,11.623 -11.619,13.506 -7.982,2.118 -16.987,0.898 -16.692,-3.75 0.066,-1.05 9.502,0.945 8.446,-1.722z;
                    M43.818 4.748c14.104,8.143 28.208,16.286 42.312,24.429 0,16.286 0,32.572 0,48.858 -14.104,8.143 -28.208,16.286 -42.312,24.429 -14.104,-8.143 -28.208,-16.286 -42.312,-24.429 0,-16.286 0,-32.572 0,-48.858 14.104,-8.143 28.208,-16.286 42.312,-24.429z;
                "
            />
        </path>
        <path fill="#336666">
            <animate 
                id="hexal_11_anim"
                attributeName="d" 
                dur="0.5s"
                repeatCount="1" 
                fill="freeze" 
                begin="hexal_10_anim.end + 0s"        
                values="
                    M143.605 117.233c-11.917,-0.558 -15.39,14.02 -8.32,21.298 3.084,3.175 8.174,4.961 15.444,3.496 9.822,-1.98 10.024,-5.853 12.741,-16.761 1.511,-6.066 -2.861,-10.251 -8.592,-12.515 -8.523,-3.368 -20.052,-2.49 -19.719,2.759 0.066,1.051 9.502,-0.944 8.446,1.723z;
                    M147.709 77.793c14.103,8.143 28.208,16.286 42.312,24.429 0,16.286 0,32.571 0,48.857 -14.104,8.143 -28.208,16.286 -42.312,24.429 -14.104,-8.143 -28.208,-16.286 -42.312,-24.429 0,-16.286 0,-32.571 0,-48.857 14.104,-8.143 28.208,-16.286 42.312,-24.429z;
                "
            />
        </path>
        <path fill="#336666">
            <animate 
                id="hexal_12_anim"
                attributeName="d" 
                dur="0.5s" 
                repeatCount="1" 
                fill="freeze"  
                begin="hexal_11_anim.end + 0s"       
                values="
                    M324.118 107.816c10.282,-0.481 14.277,10.303 10.641,17.946 -2.417,5.081 -8.207,8.774 -17.765,6.847 -9.822,-1.979 -10.024,-5.853 -12.741,-16.76 -1.541,-6.185 3.034,-10.414 8.93,-12.646 8.486,-3.212 19.709,-2.289 19.381,2.89 -0.066,1.051 -9.502,-0.944 -8.446,1.723z;
                    M324.118 77.793c14.103,8.143 28.207,16.286 42.311,24.429 0,16.286 0,32.571 0,48.857 -14.104,8.143 -28.207,16.286 -42.311,24.429 -14.104,-8.143 -28.208,-16.286 -42.312,-24.429 0,-16.286 0,-32.571 0,-48.857 14.104,-8.143 28.208,-16.286 42.312,-24.429z;
                "
            />
        </path>
        <path fill="#333333">
            <animate 
                id="hexal_13_anim"
                attributeName="d" 
                dur="0.5s"
                repeatCount="1" 
                fill="freeze"  
                begin="hexal_12_anim.end + 0.3s"       
                values="
                    M236.053 126.651c9.467,0.443 13.605,-8.665 11.363,-16.077 -1.811,-5.99 -7.789,-10.874 -18.487,-8.717 -9.822,1.98 -10.024,5.853 -12.74,16.76 -1.477,5.928 2.665,10.06 8.203,12.358 8.556,3.551 20.445,2.727 20.108,-2.602 -0.067,-1.05 -9.502,0.945 -8.447,-1.722z;
                    M236.053 77.793c14.104,8.143 28.208,16.286 42.312,24.429 0,16.286 0,32.571 0,48.857 -14.104,8.143 -28.207,16.286 -42.312,24.429 -14.104,-8.143 -28.207,-16.286 -42.311,-24.429 0,-16.286 0,-32.571 0,-48.857 14.104,-8.143 28.208,-16.286 42.311,-24.429z;
                "
            />
        </path>
        <path fill="#333333">
            <animate 
                id="hexal_14_anim"
                attributeName="d" 
                dur="0.5s"
                repeatCount="1" 
                fill="freeze"  
                begin="hexal_13_anim.end + 0s"       
                values="
                    M375.45 50.257c-10.18,0.476 -14.197,-10.09 -10.747,-17.718 2.351,-5.198 8.17,-9.031 17.871,-7.076 9.822,1.98 10.024,5.853 12.741,16.76 1.522,6.111 -2.924,10.312 -8.717,12.565 -8.509,3.309 -19.925,2.414 -19.594,-2.809 0.066,-1.05 9.502,0.945 8.446,-1.722z;
                    M367.868 2c14.104,8.143 28.208,16.286 42.312,24.428 0,16.286 0,32.572 0,48.858 -14.104,8.143 -28.208,16.286 -42.312,24.429 -14.104,-8.143 -28.208,-16.286 -42.312,-24.429 0,-16.286 0,-32.572 0,-48.858 14.104,-8.142 28.208,-16.285 42.312,-24.428z;
                "
            />
        </path>
        <path fill="#333333">
            <animate 
                id="hexal_15_anim"
                attributeName="d" 
                dur="0.5s"
                repeatCount="1" 
                fill="freeze"  
                begin="hexal_14_anim.end + 0s"       
                values="
                    M275.234 212.204c-11.262,0.527 -14.982,-12.461 -9.393,-20.034 2.906,-3.936 8.329,-6.41 16.517,-4.76 9.822,1.98 10.024,5.853 12.74,16.761 1.815,7.285 -4.855,11.857 -12.175,13.648 -7.839,1.917 -16.424,0.647 -16.136,-3.892 0.067,-1.051 9.502,0.944 8.447,-1.723z;
                    M279.337 153.929c14.104,8.143 28.208,16.286 42.312,24.429 0,16.286 0,32.571 0,48.857 -14.104,8.143 -28.208,16.286 -42.312,24.429 -14.104,-8.143 -28.208,-16.286 -42.312,-24.429 0,-16.286 0,-32.571 0,-48.857 14.104,-8.143 28.208,-16.286 42.312,-24.429z;
                "
            />
        </path>
    </g>
</svg>
